<?xml version="1.0" encoding="utf-8"?>
<!-- Generator: Adobe Illustrator 15.1.0, SVG Export Plug-In . SVG Version: 6.00 Build 0)  -->
<!DOCTYPE svg PUBLIC "-//W3C//DTD SVG 1.1//EN" "http://www.w3.org/Graphics/SVG/1.1/DTD/svg11.dtd">
<svg version="1.1" id="Layer_1" xmlns="http://www.w3.org/2000/svg" xmlns:xlink="http://www.w3.org/1999/xlink" x="0px" y="0px"
	 width="460px" height="65.126px" viewBox="0 0 460 65.126" enable-background="new 0 0 460 65.126" xml:space="preserve">
<g>
	<path fill="#FFFFFF" d="M161.432,0h-50.324c-4.087,0-7.401,3.313-7.401,7.401v50.325c0,4.087,3.314,7.4,7.401,7.4h50.324
		c4.088,0,7.401-3.313,7.401-7.4V7.401C168.833,3.313,165.52,0,161.432,0z M135.576,12.585h2.299v2.984l-0.605,4.787h-1.104
		l-0.591-4.787V12.585z M135.515,21.29h2.44v2.393h-2.44V21.29z M139.09,50.325h-3.784V38.229h-4.688v-2.851
		c0.656,0.019,1.292-0.03,1.906-0.146c0.612-0.116,1.161-0.32,1.65-0.614c0.489-0.293,0.902-0.68,1.239-1.158
		c0.337-0.481,0.56-1.075,0.666-1.786h3.012V50.325z"/>
	<g>
		<path fill="#FFFFFF" d="M233.961,0h-50.326c-4.087,0-7.401,3.313-7.401,7.401v50.325c0,4.087,3.314,7.4,7.401,7.4h50.326
			c4.087,0,7.401-3.313,7.401-7.4V7.401C241.362,3.313,238.048,0,233.961,0z M204.418,15.102c0.311-0.709,0.736-1.324,1.276-1.842
			c0.538-0.518,1.164-0.928,1.881-1.228c0.714-0.3,1.476-0.45,2.284-0.45c0.705,0,1.384,0.114,2.036,0.341
			c0.654,0.228,1.229,0.546,1.727,0.956c0.497,0.409,0.894,0.907,1.195,1.493c0.3,0.585,0.451,1.235,0.451,1.95
			c0,0.798-0.142,1.482-0.428,2.052c-0.285,0.57-0.627,1.035-1.026,1.398c-0.398,0.362-0.803,0.629-1.211,0.799
			c-0.409,0.171-0.738,0.258-0.986,0.258c-0.332,0-0.6-0.083-0.801-0.25c-0.203-0.166-0.313-0.379-0.334-0.638h-0.033
			c-0.184,0.312-0.43,0.54-0.73,0.683c-0.3,0.146-0.616,0.219-0.947,0.219c-0.332,0-0.646-0.07-0.941-0.211
			c-0.294-0.139-0.554-0.331-0.776-0.574c-0.223-0.243-0.401-0.526-0.528-0.848c-0.131-0.32-0.196-0.662-0.196-1.026
			c0-0.487,0.08-0.968,0.243-1.446c0.16-0.476,0.387-0.901,0.683-1.273c0.294-0.373,0.652-0.674,1.072-0.902
			c0.419-0.228,0.883-0.342,1.39-0.342c0.332,0,0.675,0.081,1.025,0.241c0.353,0.161,0.618,0.443,0.793,0.846l0.249-0.838h1.273
			l-0.979,4.01c-0.03,0.104-0.06,0.214-0.086,0.333c-0.024,0.121-0.038,0.231-0.038,0.335c0,0.104,0.021,0.189,0.062,0.256
			c0.04,0.068,0.108,0.101,0.202,0.101c0.217,0,0.438-0.069,0.66-0.21c0.224-0.139,0.42-0.337,0.591-0.59
			c0.17-0.255,0.312-0.558,0.42-0.91c0.108-0.352,0.164-0.735,0.164-1.149c0-0.622-0.11-1.169-0.326-1.641
			c-0.219-0.471-0.517-0.87-0.895-1.195c-0.378-0.327-0.824-0.573-1.338-0.738c-0.511-0.166-1.064-0.249-1.655-0.249
			c-0.662,0-1.266,0.116-1.81,0.349c-0.543,0.234-1.007,0.556-1.391,0.964c-0.384,0.41-0.679,0.896-0.886,1.461
			c-0.206,0.565-0.31,1.173-0.31,1.826c0,0.684,0.114,1.304,0.341,1.856c0.228,0.555,0.544,1.031,0.948,1.43
			c0.404,0.399,0.887,0.708,1.453,0.924c0.565,0.219,1.179,0.327,1.844,0.327c0.651,0,1.27-0.111,1.854-0.334
			c0.587-0.222,1.08-0.536,1.486-0.94h1.305c-0.526,0.809-1.206,1.428-2.037,1.858c-0.827,0.429-1.729,0.644-2.703,0.644
			c-0.829,0-1.606-0.146-2.331-0.435c-0.726-0.29-1.361-0.694-1.905-1.212c-0.543-0.518-0.972-1.131-1.283-1.841
			c-0.31-0.71-0.466-1.479-0.466-2.307C203.953,16.575,204.108,15.812,204.418,15.102z M216.168,50.325h-13.696
			c0-1.083,0.156-2.024,0.467-2.825c0.31-0.798,0.733-1.513,1.265-2.143c0.533-0.631,1.16-1.214,1.878-1.746
			c0.719-0.531,1.479-1.074,2.277-1.624c0.41-0.285,0.844-0.574,1.306-0.867c0.461-0.293,0.884-0.618,1.265-0.972
			c0.383-0.355,0.702-0.755,0.96-1.198c0.257-0.446,0.386-0.951,0.386-1.52c0-0.905-0.261-1.612-0.786-2.119
			c-0.524-0.506-1.195-0.76-2.011-0.76c-0.552,0-1.017,0.131-1.399,0.387c-0.382,0.26-0.688,0.596-0.919,1.013
			c-0.23,0.418-0.396,0.88-0.492,1.386c-0.098,0.506-0.146,1.009-0.146,1.506h-3.624c-0.037-1.065,0.088-2.056,0.373-2.97
			c0.283-0.917,0.71-1.716,1.279-2.399c0.569-0.684,1.282-1.215,2.144-1.598c0.861-0.382,1.852-0.574,2.971-0.574
			c0.852,0,1.665,0.134,2.437,0.4c0.773,0.267,1.453,0.649,2.04,1.146c0.585,0.498,1.051,1.11,1.399,1.84
			c0.344,0.729,0.519,1.544,0.519,2.449c0,0.943-0.15,1.75-0.454,2.425c-0.301,0.675-0.701,1.274-1.197,1.8
			c-0.498,0.523-1.063,0.998-1.692,1.425c-0.631,0.426-1.267,0.848-1.906,1.265c-0.639,0.417-1.261,0.866-1.864,1.347
			c-0.606,0.479-1.138,1.039-1.599,1.677h8.819V50.325z"/>
		<path fill="#FFFFFF" d="M209.843,15.699c-0.28,0-0.538,0.071-0.777,0.211c-0.238,0.139-0.442,0.321-0.613,0.543
			c-0.169,0.222-0.302,0.469-0.395,0.737c-0.094,0.271-0.14,0.535-0.14,0.794c0,0.414,0.111,0.748,0.335,1.002
			c0.221,0.253,0.515,0.381,0.876,0.381c0.279,0,0.536-0.073,0.769-0.217c0.234-0.146,0.436-0.329,0.607-0.552
			c0.17-0.224,0.304-0.474,0.396-0.754c0.094-0.279,0.142-0.554,0.142-0.824c0-0.383-0.117-0.699-0.349-0.948
			C210.458,15.823,210.176,15.699,209.843,15.699z"/>
	</g>
	<g>
		<path fill="#FFFFFF" d="M306.489,0h-50.326c-4.088,0-7.399,3.313-7.399,7.401v50.325c0,4.087,3.312,7.4,7.399,7.4h50.326
			c4.085,0,7.399-3.313,7.399-7.4V7.401C313.889,3.313,310.574,0,306.489,0z M277.175,18.466h1.477l0.279-1.927h-1.29v-1.398h1.479
			l0.434-3.078h1.508l-0.437,3.078h1.508l0.42-3.078h1.508l-0.42,3.078h1.15v1.398h-1.352l-0.266,1.927h1.149v1.398h-1.352
			l-0.419,3.078h-1.508l0.419-3.078h-1.492l-0.435,3.078h-1.508l0.437-3.078h-1.29V18.466z M287.462,47.18
			c-0.383,0.766-0.893,1.404-1.531,1.92c-0.641,0.516-1.377,0.906-2.212,1.171c-0.835,0.267-1.705,0.4-2.611,0.4
			c-1.046,0-2.002-0.152-2.864-0.453c-0.861-0.302-1.593-0.741-2.199-1.319c-0.603-0.577-1.067-1.281-1.396-2.116
			c-0.329-0.836-0.485-1.794-0.467-2.879h3.596c0.019,0.498,0.098,0.972,0.24,1.426c0.143,0.452,0.347,0.844,0.613,1.174
			c0.267,0.327,0.6,0.589,0.998,0.785c0.4,0.194,0.876,0.292,1.426,0.292c0.853,0,1.572-0.262,2.159-0.784
			c0.586-0.524,0.879-1.239,0.879-2.146c0-0.709-0.138-1.25-0.413-1.625c-0.274-0.373-0.626-0.643-1.053-0.812
			c-0.424-0.169-0.893-0.266-1.397-0.292c-0.506-0.027-0.99-0.041-1.452-0.041v-2.663c0.408,0.035,0.844,0.035,1.305,0
			c0.462-0.036,0.893-0.139,1.292-0.307c0.399-0.17,0.729-0.414,0.985-0.733c0.259-0.32,0.388-0.746,0.388-1.278
			c0-0.801-0.267-1.413-0.8-1.838c-0.531-0.429-1.146-0.64-1.839-0.64c-0.958,0-1.682,0.314-2.171,0.944
			c-0.489,0.632-0.725,1.427-0.705,2.385h-3.598c0.036-0.958,0.208-1.834,0.52-2.625c0.311-0.791,0.746-1.469,1.305-2.038
			c0.562-0.566,1.23-1.006,2.013-1.317c0.78-0.311,1.65-0.468,2.61-0.468c0.747,0,1.492,0.111,2.237,0.333
			c0.747,0.223,1.417,0.555,2.012,0.999c0.595,0.444,1.079,0.986,1.452,1.625c0.373,0.64,0.56,1.377,0.56,2.21
			c0,0.908-0.219,1.707-0.653,2.399s-1.087,1.163-1.958,1.412v0.054c1.031,0.23,1.839,0.729,2.425,1.491
			c0.585,0.765,0.878,1.679,0.878,2.745C288.033,45.547,287.845,46.417,287.462,47.18z"/>
		<polygon fill="#FFFFFF" points="281.931,16.539 280.438,16.539 280.158,18.466 281.666,18.466 		"/>
	</g>
	<g>
		<path fill="#FFFFFF" d="M355.264,13.4c-0.177,0-0.348,0.025-0.513,0.078c-0.167,0.052-0.316,0.131-0.451,0.241
			c-0.136,0.108-0.242,0.244-0.317,0.405c-0.08,0.161-0.117,0.349-0.117,0.567c0,0.341,0.108,0.605,0.327,0.792
			c0.218,0.187,0.574,0.337,1.071,0.45V13.4z"/>
		<path fill="#FFFFFF" d="M357.307,20.968c0.162-0.123,0.293-0.276,0.396-0.458c0.104-0.181,0.155-0.396,0.155-0.646
			c0-0.404-0.125-0.706-0.381-0.909c-0.253-0.202-0.687-0.385-1.298-0.55v2.982c0.188-0.019,0.382-0.064,0.584-0.131
			C356.966,21.188,357.146,21.093,357.307,20.968z"/>
		<polygon fill="#FFFFFF" points="350.379,42.891 355.28,42.891 355.28,36.417 355.201,36.417 		"/>
		<path fill="#FFFFFF" d="M379.017,0h-50.325c-4.089,0-7.4,3.313-7.4,7.401v50.325c0,4.087,3.312,7.4,7.4,7.4h50.325
			c4.086,0,7.4-3.313,7.4-7.4V7.401C386.417,3.313,383.103,0,379.017,0z M355.054,18.07c-0.089-0.026-0.185-0.05-0.287-0.07
			c-0.384-0.103-0.763-0.225-1.135-0.365c-0.373-0.141-0.707-0.326-1.001-0.56c-0.296-0.233-0.533-0.523-0.709-0.87
			c-0.177-0.348-0.266-0.78-0.266-1.298c0-0.528,0.103-0.995,0.305-1.398c0.203-0.405,0.47-0.744,0.8-1.019
			c0.332-0.274,0.715-0.486,1.15-0.637c0.436-0.149,0.888-0.24,1.353-0.271v-1.197h0.916v1.197c0.468,0.051,0.904,0.153,1.315,0.303
			c0.408,0.15,0.769,0.357,1.079,0.622c0.311,0.264,0.565,0.593,0.762,0.987c0.198,0.394,0.31,0.859,0.342,1.398h-2.207
			c-0.01-0.414-0.14-0.767-0.39-1.057c-0.248-0.29-0.548-0.435-0.901-0.435v2.75c0.124,0.031,0.252,0.063,0.382,0.094
			c0.131,0.031,0.268,0.067,0.411,0.109c0.768,0.206,1.358,0.463,1.772,0.768c0.415,0.306,0.721,0.625,0.918,0.956
			c0.196,0.333,0.312,0.664,0.349,0.996c0.037,0.331,0.055,0.626,0.055,0.885c0,0.228-0.058,0.515-0.171,0.862
			c-0.115,0.348-0.319,0.688-0.613,1.019c-0.295,0.332-0.693,0.627-1.188,0.885c-0.498,0.259-1.136,0.415-1.914,0.466v1.321h-0.916
			V23.19c-1.16-0.082-2.066-0.44-2.721-1.072c-0.651-0.633-1.03-1.561-1.133-2.782h2.191c-0.011,0.589,0.144,1.057,0.466,1.398
			c0.32,0.342,0.72,0.56,1.196,0.652V18.14C355.212,18.119,355.141,18.095,355.054,18.07z M361.356,46.008h-2.479v4.316h-3.598
			v-4.316h-7.885v-3.463l8.099-10.871h3.384v11.216h2.479V46.008z"/>
	</g>
	<g>
		<path fill="#FFFFFF" d="M429.651,21.302c0.062,0.191,0.161,0.356,0.296,0.49c0.133,0.134,0.326,0.201,0.574,0.201
			c0.238,0,0.429-0.067,0.567-0.201c0.141-0.134,0.243-0.299,0.311-0.49s0.109-0.394,0.126-0.606
			c0.015-0.212,0.021-0.401,0.021-0.566c0-0.157-0.007-0.34-0.021-0.553c-0.017-0.212-0.056-0.413-0.119-0.605
			c-0.062-0.191-0.156-0.357-0.286-0.498c-0.13-0.139-0.309-0.209-0.537-0.209c-0.247,0-0.442,0.062-0.583,0.186
			c-0.139,0.124-0.245,0.28-0.317,0.466c-0.073,0.187-0.117,0.389-0.132,0.606c-0.017,0.219-0.023,0.415-0.023,0.592
			c0,0.166,0.004,0.357,0.016,0.574C429.552,20.906,429.589,21.111,429.651,21.302z"/>
		<path fill="#FFFFFF" d="M451.544,0h-50.325c-4.088,0-7.399,3.313-7.399,7.401v50.325c0,4.087,3.312,7.4,7.399,7.4h50.325
			c4.087,0,7.401-3.313,7.401-7.4V7.401C458.945,3.313,455.631,0,451.544,0z M431.797,17.34c0.321,0.16,0.581,0.378,0.784,0.653
			c0.201,0.275,0.344,0.598,0.427,0.971c0.084,0.374,0.126,0.772,0.126,1.197c0,0.424-0.053,0.818-0.158,1.181
			c-0.102,0.362-0.26,0.679-0.472,0.948c-0.214,0.27-0.483,0.479-0.816,0.63c-0.332,0.15-0.725,0.225-1.181,0.225
			c-0.477,0-0.88-0.077-1.205-0.232c-0.325-0.156-0.591-0.371-0.792-0.646c-0.202-0.274-0.349-0.599-0.436-0.971
			c-0.087-0.373-0.133-0.771-0.133-1.196c0-0.424,0.051-0.819,0.155-1.182c0.103-0.362,0.264-0.679,0.482-0.947
			c0.218-0.27,0.49-0.483,0.825-0.639c0.33-0.154,0.723-0.232,1.179-0.232C431.071,17.098,431.474,17.179,431.797,17.34z
			 M430.46,11.721l-6.403,11.547h-1.354l6.438-11.547H430.46z M420.077,13.727c0.104-0.374,0.265-0.699,0.482-0.979
			c0.218-0.28,0.491-0.5,0.824-0.662c0.331-0.16,0.725-0.241,1.181-0.241c0.485,0,0.891,0.082,1.213,0.248
			c0.321,0.167,0.582,0.392,0.785,0.676c0.201,0.285,0.343,0.62,0.427,1.003c0.082,0.382,0.123,0.787,0.123,1.211
			c0,0.426-0.052,0.817-0.154,1.174s-0.262,0.666-0.475,0.924s-0.483,0.462-0.817,0.607c-0.331,0.145-0.723,0.217-1.181,0.217
			c-0.477,0-0.876-0.075-1.203-0.225c-0.326-0.151-0.592-0.357-0.793-0.622c-0.202-0.265-0.348-0.579-0.436-0.948
			c-0.088-0.367-0.131-0.763-0.131-1.189C419.923,14.498,419.973,14.1,420.077,13.727z M433.271,46.661
			c-0.371,0.827-0.874,1.543-1.506,2.146c-0.629,0.604-1.364,1.069-2.196,1.396c-0.836,0.329-1.724,0.485-2.666,0.468
			c-0.905,0-1.771-0.119-2.596-0.359c-0.828-0.239-1.559-0.607-2.198-1.105c-0.641-0.498-1.152-1.114-1.533-1.853
			c-0.382-0.738-0.582-1.595-0.6-2.57h3.784c0.089,0.853,0.408,1.531,0.96,2.038c0.55,0.507,1.251,0.759,2.104,0.759
			c0.497,0,0.945-0.102,1.344-0.307c0.401-0.203,0.738-0.47,1.014-0.798c0.275-0.33,0.488-0.713,0.639-1.146
			c0.15-0.435,0.228-0.884,0.228-1.346c0-0.479-0.072-0.933-0.215-1.359c-0.14-0.425-0.355-0.799-0.638-1.119
			c-0.285-0.318-0.623-0.568-1.013-0.745c-0.391-0.178-0.846-0.267-1.358-0.267c-0.677,0-1.226,0.119-1.652,0.359
			c-0.426,0.24-0.825,0.617-1.2,1.134h-3.41l1.84-10.312h10.417v3.118h-7.7l-0.745,4.235l0.053,0.054
			c0.516-0.514,1.065-0.885,1.651-1.104c0.586-0.222,1.253-0.336,1.999-0.336c0.923,0,1.74,0.171,2.451,0.507
			c0.71,0.339,1.311,0.791,1.798,1.359c0.488,0.569,0.861,1.239,1.121,2.011c0.255,0.775,0.384,1.596,0.384,2.466
			C433.83,44.944,433.646,45.835,433.271,46.661z"/>
		<path fill="#FFFFFF" d="M421.633,16.095c0.061,0.182,0.159,0.334,0.296,0.46c0.133,0.124,0.325,0.185,0.573,0.185
			c0.238,0,0.428-0.062,0.566-0.185c0.142-0.125,0.245-0.278,0.312-0.46c0.067-0.181,0.107-0.372,0.124-0.574
			c0.015-0.202,0.023-0.386,0.023-0.552c0-0.155-0.009-0.344-0.023-0.567c-0.017-0.224-0.055-0.438-0.117-0.645
			c-0.062-0.208-0.158-0.385-0.288-0.53c-0.129-0.144-0.309-0.217-0.535-0.217c-0.249,0-0.442,0.067-0.583,0.202
			c-0.141,0.136-0.246,0.301-0.317,0.498c-0.073,0.197-0.117,0.409-0.134,0.637c-0.016,0.228-0.023,0.431-0.023,0.606
			c0,0.167,0.006,0.353,0.017,0.56C421.533,15.72,421.568,15.915,421.633,16.095z"/>
	</g>
</g>
<g>
	<path fill="#FFFFFF" d="M0,7.427v0.688v38.136c0,0,6.749-8.554,8.102-8.145c0.987,0.299,8.057,18.678,8.057,18.678
		s1.792,0.226,3.809-0.614c2.203-0.917,3.087-2.219,3.087-2.219s-7.46-17.52-7.46-18.503c0-1.014,10.841-1.909,10.841-1.909L0,7.427
		z"/>
</g>
<g>
	<g>
		<path fill="#FFFFFF" d="M52.582,31.089c0.219-0.625,0.534-1.17,0.945-1.635c0.41-0.465,0.914-0.83,1.511-1.095
			c0.598-0.265,1.271-0.397,2.019-0.397c0.757,0,1.432,0.132,2.025,0.397c0.592,0.265,1.095,0.63,1.505,1.095
			c0.411,0.465,0.726,1.01,0.945,1.635c0.218,0.625,0.328,1.302,0.328,2.032c0,0.712-0.11,1.375-0.328,1.991
			c-0.219,0.616-0.534,1.151-0.945,1.607c-0.41,0.456-0.913,0.814-1.505,1.074c-0.593,0.261-1.268,0.391-2.025,0.391
			c-0.748,0-1.421-0.13-2.019-0.391c-0.597-0.26-1.101-0.618-1.511-1.074c-0.411-0.456-0.726-0.991-0.945-1.607
			c-0.219-0.616-0.328-1.279-0.328-1.991C52.254,32.391,52.363,31.714,52.582,31.089z M54.546,34.318
			c0.095,0.388,0.248,0.737,0.458,1.048c0.21,0.31,0.484,0.558,0.821,0.745c0.337,0.187,0.748,0.28,1.231,0.28
			c0.483,0,0.894-0.094,1.232-0.28c0.337-0.188,0.61-0.436,0.821-0.745c0.209-0.311,0.362-0.66,0.458-1.048s0.144-0.787,0.144-1.197
			c0-0.429-0.048-0.844-0.144-1.246c-0.096-0.401-0.249-0.759-0.458-1.074c-0.21-0.314-0.483-0.565-0.821-0.753
			c-0.338-0.187-0.749-0.28-1.232-0.28c-0.484,0-0.895,0.093-1.231,0.28c-0.337,0.188-0.611,0.438-0.821,0.753
			c-0.21,0.315-0.363,0.673-0.458,1.074c-0.096,0.402-0.144,0.816-0.144,1.246C54.402,33.531,54.45,33.93,54.546,34.318z"/>
		<path fill="#FFFFFF" d="M68.592,28.195c0.438,0,0.833,0.07,1.184,0.212c0.352,0.142,0.652,0.335,0.903,0.582
			c0.251,0.246,0.442,0.531,0.575,0.855c0.132,0.324,0.198,0.673,0.198,1.046c0,0.575-0.121,1.072-0.362,1.492
			c-0.242,0.42-0.637,0.739-1.184,0.958v0.028c0.265,0.073,0.483,0.185,0.657,0.335c0.173,0.15,0.314,0.329,0.424,0.533
			c0.109,0.206,0.189,0.432,0.239,0.678s0.084,0.492,0.103,0.738c0.009,0.155,0.018,0.338,0.027,0.547
			c0.009,0.21,0.025,0.426,0.048,0.644c0.023,0.22,0.06,0.427,0.109,0.623c0.05,0.197,0.125,0.363,0.226,0.5h-2.148
			c-0.119-0.311-0.191-0.681-0.219-1.109c-0.028-0.429-0.068-0.838-0.124-1.231c-0.073-0.51-0.228-0.885-0.465-1.122
			c-0.237-0.235-0.625-0.354-1.163-0.354h-2.149v3.817h-2.148v-9.771H68.592z M67.825,32.615c0.493,0,0.863-0.109,1.109-0.329
			s0.37-0.575,0.37-1.067c0-0.475-0.124-0.819-0.37-1.033s-0.616-0.322-1.109-0.322h-2.354v2.751H67.825z"/>
	</g>
	<line fill="#FFFFFF" stroke="#FFFFFF" stroke-width="3" stroke-miterlimit="10" x1="62.64" y1="15.949" x2="62.64" y2="24.548"/>
	<line fill="#FFFFFF" stroke="#FFFFFF" stroke-width="3" stroke-miterlimit="10" x1="62.64" y1="40.579" x2="62.64" y2="49.176"/>
</g>
</svg>
